<?xml version="1.0" standalone="no"?><!DOCTYPE svg PUBLIC "-//W3C//DTD SVG 1.1//EN" "http://www.w3.org/Graphics/SVG/1.1/DTD/svg11.dtd"><svg class="icon" width="48px" height="48.00px" viewBox="0 0 1024 1024" version="1.1" xmlns="http://www.w3.org/2000/svg"><path d="M145.6 0C100.8 0 64 36.8 64 81.6v860.8C64 987.2 100.8 1024 145.6 1024h732.8c44.8 0 81.6-36.8 81.6-81.6V324.8L657.6 0h-512z" fill="#277A84" /><path d="M960 326.4v16H755.2s-102.4-20.8-99.2-107.2c0 0 3.2 91.2 96 91.2h208z" fill="#1E5B60" /><path d="M657.6 0v233.6c0 25.6 17.6 92.8 97.6 92.8H960L657.6 0z" fill="#FFFFFF" opacity=".5" /><path d="M497.6 628.8l33.6-33.6H232s-6.4 0-6.4 6.4V624c0 3.2 3.2 4.8 6.4 4.8h265.6z m-116.8 116.8l33.6-33.6H232s-6.4 0-6.4 6.4v20.8s3.2 6.4 6.4 6.4h148.8z m-81.6 116.8l4.8-33.6h-72s-6.4 0-6.4 6.4v20.8c0 3.2 3.2 6.4 6.4 6.4h67.2z m14.4 0s27.2-1.6 32-1.6c4.8-1.6 6.4-3.2 8-4.8l209.6-209.6s-8 6.4-25.6-11.2c-12.8-14.4-6.4-22.4-6.4-22.4s-204.8 203.2-208 208c-4.8 3.2-4.8 6.4-4.8 8 0 1.6-4.8 33.6-4.8 33.6z m241.6-275.2c-3.2 3.2-14.4 16-16 17.6-1.6 1.6-3.2 3.2-1.6 9.6 1.6 4.8 11.2 20.8 25.6 25.6 0 0 4.8 1.6 9.6-3.2 3.2-3.2 17.6-16 17.6-16s3.2-3.2 0-11.2c-3.2-6.4-12.8-19.2-25.6-24-6.4-3.2-9.6 1.6-9.6 1.6z" fill="#FFFFFF" /></svg>