<?xml version="1.0" standalone="no"?><!DOCTYPE svg PUBLIC "-//W3C//DTD SVG 1.1//EN" "http://www.w3.org/Graphics/SVG/1.1/DTD/svg11.dtd"><svg class="icon" width="48px" height="48.00px" viewBox="0 0 1024 1024" version="1.1" xmlns="http://www.w3.org/2000/svg"><path d="M145.6 0C100.8 0 64 36.8 64 81.6v860.8C64 987.2 100.8 1024 145.6 1024h732.8c44.8 0 81.6-36.8 81.6-81.6V324.8L657.6 0h-512z" fill="#FFC35E" /><path d="M342.4 862.4h-99.2c-9.6 0-17.6-8-17.6-17.6V688c0-9.6 8-17.6 17.6-17.6h99.2c6.4 0 11.2 4.8 11.2 11.2 0 4.8-4.8 9.6-11.2 9.6h-92.8v62.4h91.2c6.4 0 11.2 4.8 11.2 11.2 0 4.8-4.8 9.6-11.2 9.6h-91.2v67.2h92.8c6.4 0 11.2 4.8 11.2 9.6 0 6.4-4.8 11.2-11.2 11.2z m131.2-76.8h-52.8v67.2c0 6.4-4.8 11.2-11.2 11.2-8 0-12.8-4.8-12.8-11.2V688c0-9.6 8-17.6 17.6-17.6h59.2c40 0 60.8 27.2 60.8 57.6 0 32-22.4 57.6-60.8 57.6z m-1.6-94.4h-51.2v73.6h51.2c22.4 0 38.4-14.4 38.4-36.8 0-20.8-16-36.8-38.4-36.8z m163.2 174.4c-28.8 0-51.2-9.6-67.2-24-3.2-1.6-3.2-4.8-3.2-8 0-6.4 3.2-12.8 11.2-12.8 1.6 0 4.8 1.6 6.4 3.2 12.8 11.2 32 20.8 54.4 20.8 33.6 0 44.8-19.2 44.8-33.6 0-49.6-113.6-22.4-113.6-91.2 0-30.4 28.8-52.8 65.6-52.8 25.6 0 46.4 8 62.4 20.8 1.6 1.6 3.2 4.8 3.2 8 0 6.4-4.8 12.8-11.2 12.8-1.6 0-4.8-1.6-6.4-3.2-14.4-11.2-32-16-49.6-16-22.4 0-40 11.2-40 30.4 0 43.2 113.6 17.6 113.6 89.6 0 27.2-17.6 56-70.4 56z" fill="#FFFFFF" /><path d="M960 326.4v16H755.2c-38.4 0-100.8-20.8-97.6-108.8 0 0 3.2 92.8 96 92.8H960z" fill="#FFB446" /><path d="M657.6 0v233.6c0 25.6 17.6 92.8 97.6 92.8H960L657.6 0z" fill="#FFFFFF" opacity=".5" /></svg>