<?xml version="1.0" standalone="no"?><!DOCTYPE svg PUBLIC "-//W3C//DTD SVG 1.1//EN" "http://www.w3.org/Graphics/SVG/1.1/DTD/svg11.dtd"><svg class="icon" width="48px" height="48.00px" viewBox="0 0 1024 1024" version="1.1" xmlns="http://www.w3.org/2000/svg"><path d="M888 248A72 72 0 0 1 960 320v496a72 72 0 0 1-72 72h-752A72 72 0 0 1 64 816V208a72 72 0 0 1 72-72H320c60.8 0 67.2 19.2 107.2 72 33.6 43.2 115.2 40 166.4 40z" fill="#003462" /><path d="M888 289.6H211.2a72 72 0 0 0-72 72v46.4L211.2 304h676.8l72 104v-46.4a72 72 0 0 0-72-72z" fill="#87C8F2" /><path d="M137.6 888h750.4A72 72 0 0 0 960 816V376a72 72 0 0 0-72-72H212.8a72 72 0 0 0-73.6 72V816a75.2 75.2 0 0 1 0 11.2 36.8 36.8 0 0 1-73.6 0 72 72 0 0 0 72 60.8z" fill="#00A1E0" /></svg>