<?xml version="1.0" standalone="no"?><!DOCTYPE svg PUBLIC "-//W3C//DTD SVG 1.1//EN" "http://www.w3.org/Graphics/SVG/1.1/DTD/svg11.dtd"><svg class="icon" width="48px" height="48.00px" viewBox="0 0 1024 1024" version="1.1" xmlns="http://www.w3.org/2000/svg"><path d="M145.6 0c-44.8 0-80 36.8-80 81.6v860.8c0 44.8 35.2 81.6 80 81.6h732.8c44.8 0 81.6-36.8 81.6-81.6V324.8L657.6 0h-512z" fill="#DB7A2A" /><path d="M960 326.4v16H755.2s-100.8-20.8-99.2-108.8c0 0 4.8 92.8 97.6 92.8H960z" fill="#D25B1F" /><path d="M657.6 0v233.6c0 25.6 17.6 92.8 97.6 92.8H960L657.6 0z" fill="#FFFFFF" opacity=".5" /><path d="M348.8 864c-3.2 0-6.4-1.6-8-3.2l-70.4-84.8-20.8 22.4v54.4c0 6.4-4.8 11.2-11.2 11.2-6.4 0-12.8-4.8-12.8-11.2V680c0-6.4 6.4-11.2 12.8-11.2s11.2 4.8 11.2 11.2v89.6l83.2-97.6c3.2-1.6 6.4-3.2 8-3.2 6.4 0 12.8 4.8 12.8 11.2 0 1.6-1.6 4.8-3.2 6.4l-65.6 75.2 73.6 84.8c1.6 1.6 1.6 3.2 1.6 6.4 0 4.8-4.8 11.2-11.2 11.2z m174.4-1.6h-99.2c-9.6 0-17.6-8-17.6-17.6V688c0-9.6 8-17.6 17.6-17.6h99.2c6.4 0 11.2 4.8 11.2 11.2 0 4.8-4.8 9.6-11.2 9.6h-92.8v62.4h91.2c6.4 0 11.2 4.8 11.2 11.2 0 4.8-4.8 9.6-11.2 9.6h-91.2v67.2h92.8c6.4 0 11.2 3.2 11.2 9.6 0 6.4-4.8 11.2-11.2 11.2z m198.4-176l-64 94.4v72c0 6.4-4.8 11.2-12.8 11.2-6.4 0-11.2-4.8-11.2-11.2v-72l-65.6-94.4c0-1.6-1.6-4.8-1.6-6.4 0-6.4 4.8-11.2 11.2-11.2 4.8 0 8 1.6 11.2 4.8l56 86.4 57.6-86.4c1.6-3.2 6.4-4.8 9.6-4.8 6.4 0 11.2 4.8 11.2 11.2 0 1.6 0 4.8-1.6 6.4z" fill="#FFFFFF" /></svg>