<?xml version="1.0" standalone="no"?><!DOCTYPE svg PUBLIC "-//W3C//DTD SVG 1.1//EN" "http://www.w3.org/Graphics/SVG/1.1/DTD/svg11.dtd"><svg class="icon" width="48px" height="48.00px" viewBox="0 0 1024 1024" version="1.1" xmlns="http://www.w3.org/2000/svg"><path d="M147.2 0C102.4 0 65.6 36.8 65.6 81.6v860.8c0 44.8 36.8 81.6 81.6 81.6h731.2c44.8 0 81.6-36.8 81.6-81.6V324.8L657.6 0H147.2z" fill="#4E74B7" /><path d="M960 326.4v16H755.2s-100.8-20.8-99.2-108.8c0 0 4.8 92.8 97.6 92.8H960z" fill="#3A57A5" /><path d="M657.6 0v233.6c0 25.6 17.6 92.8 97.6 92.8H960L657.6 0z" fill="#FFFFFF" opacity=".5" /><path d="M531.2 654.4v190.4c0 9.6-8 19.2-19.2 19.2H244.8c-9.6 0-19.2-9.6-19.2-19.2V654.4c0-3.2 0-4.8 1.6-6.4l25.6-76.8c1.6-8 9.6-12.8 17.6-12.8h216c8 0 16 4.8 17.6 12.8l25.6 76.8c1.6 1.6 1.6 3.2 1.6 6.4z m-40 0l-19.2-57.6H284.8l-19.2 57.6h225.6z" fill="#FFFFFF" /></svg>