<?xml version="1.0" standalone="no"?><!DOCTYPE svg PUBLIC "-//W3C//DTD SVG 1.1//EN" "http://www.w3.org/Graphics/SVG/1.1/DTD/svg11.dtd"><svg class="icon" width="48px" height="48.00px" viewBox="0 0 1024 1024" version="1.1" xmlns="http://www.w3.org/2000/svg"><path d="M147.2 0C102.4 0 65.6 36.8 65.6 81.6v860.8c0 44.8 36.8 81.6 81.6 81.6h731.2c44.8 0 81.6-36.8 81.6-81.6V324.8L657.6 0H147.2z" fill="#80BC4B" /><path d="M960 326.4v16H755.2s-100.8-20.8-99.2-108.8c0 0 4.8 92.8 97.6 92.8H960z" fill="#60AB38" /><path d="M657.6 0v233.6c0 25.6 17.6 92.8 97.6 92.8H960L657.6 0z" fill="#FFFFFF" opacity=".5" /><path d="M392 862.4c81.6-4.8 147.2-73.6 147.2-156.8 0-83.2-65.6-152-147.2-156.8v313.6z" fill="#CFE8AF" /><path d="M372.8 862.4c-81.6-6.4-145.6-73.6-145.6-156.8s64-152 145.6-156.8v313.6z" fill="#FFFFFF" /></svg>