<?xml version="1.0" standalone="no"?><!DOCTYPE svg PUBLIC "-//W3C//DTD SVG 1.1//EN" "http://www.w3.org/Graphics/SVG/1.1/DTD/svg11.dtd"><svg class="icon" width="48px" height="48.00px" viewBox="0 0 1024 1024" version="1.1" xmlns="http://www.w3.org/2000/svg"><path d="M145.6 0C100.8 0 64 36.8 64 81.6v860.8C64 987.2 100.8 1024 145.6 1024h732.8c44.8 0 81.6-36.8 81.6-81.6V324.8L657.6 0h-512z" fill="#F8BE46" /><path d="M225.6 600v190.4h198.4V600H225.6z m180.8 153.6H244.8v-118.4h161.6v118.4z m11.2-81.6v35.2h134.4v118.4H388.8v-44.8h-17.6v81.6h198.4V672h-152z" fill="#FFFFFF" /><path d="M960 326.4v16H755.2s-102.4-20.8-99.2-107.2c0 0 3.2 91.2 96 91.2h208z" fill="#F6AD34" /><path d="M657.6 0v233.6c0 25.6 17.6 92.8 97.6 92.8H960L657.6 0z" fill="#FFFFFF" opacity=".5" /></svg>