<?xml version="1.0" standalone="no"?><!DOCTYPE svg PUBLIC "-//W3C//DTD SVG 1.1//EN" "http://www.w3.org/Graphics/SVG/1.1/DTD/svg11.dtd"><svg class="icon" width="48px" height="48.00px" viewBox="0 0 1024 1024" version="1.1" xmlns="http://www.w3.org/2000/svg"><path d="M888 248c40 0 72 32 72 72v496c0 40-32 72-72 72h-752C96 888 64 856 64 816V208c0-40 32-72 72-72H320c60.8 0 67.2 19.2 107.2 72 33.6 43.2 115.2 40 166.4 40h294.4z" fill="#003462" /><path d="M888 289.6H211.2c-40 0-72 32-72 72v46.4L211.2 304h676.8l72 104v-46.4c0-40-32-72-72-72z" fill="#87C8F2" /><path d="M137.6 888h750.4c40 0 72-32 72-72V376c0-40-32-72-72-72H212.8c-40-1.6-72 30.4-73.6 70.4v452.8c0 20.8-16 36.8-36.8 36.8-20.8 0-36.8-16-36.8-36.8 4.8 35.2 36.8 60.8 72 60.8z" fill="#00A1E0" /><path d="M472 604.8h57.6v184h-57.6z m97.6 0h57.6v184h-57.6z m236.8-96l-240-99.2c-6.4-3.2-11.2-4.8-17.6-4.8-1.6 0-8 0-17.6 4.8l-240 99.2c-4.8 3.2-8 8-8 12.8v14.4c0 8 6.4 14.4 14.4 14.4h46.4v224c0 8 6.4 14.4 14.4 14.4h72V604.8h-28.8c-6.4 0-9.6-3.2-9.6-9.6V576c0-6.4 3.2-9.6 9.6-9.6h292.8c6.4 0 9.6 3.2 9.6 9.6v19.2c0 6.4-3.2 9.6-9.6 9.6h-28.8v184h72c8 0 14.4-6.4 14.4-14.4v-224h46.4c8 0 14.4-6.4 14.4-14.4v-12.8c1.6-6.4-1.6-11.2-6.4-14.4z m-257.6 8c-17.6 0-30.4-14.4-30.4-30.4 0-17.6 14.4-30.4 30.4-30.4 17.6 0 30.4 14.4 30.4 30.4 0 16-12.8 30.4-30.4 30.4z" fill="#FFFFFF" /></svg>