<?xml version="1.0" standalone="no"?><!DOCTYPE svg PUBLIC "-//W3C//DTD SVG 1.1//EN" "http://www.w3.org/Graphics/SVG/1.1/DTD/svg11.dtd"><svg class="icon" width="48px" height="48.00px" viewBox="0 0 1024 1024" version="1.1" xmlns="http://www.w3.org/2000/svg"><path d="M147.2 0C102.4 0 65.6 36.8 65.6 81.6v860.8c0 44.8 35.2 81.6 81.6 81.6h731.2c44.8 0 81.6-36.8 81.6-81.6V324.8L657.6 0H147.2z" fill="#A382D8" /><path d="M960 326.4v16H755.2s-100.8-20.8-99.2-108.8c0 0 4.8 92.8 97.6 92.8H960z" fill="#8C62CE" /><path d="M657.6 0v233.6c0 25.6 17.6 92.8 97.6 92.8H960L657.6 0z" fill="#FFFFFF" opacity=".5" /><path d="M225.6 552v225.6h235.2V552H225.6z m86.4 86.4v224h235.2v-224H312z" fill="#FFFFFF" /><path d="M312 638.4h148.8v139.2h-148.8z" fill="#CBBBEF" /></svg>