<?xml version="1.0" standalone="no"?><!DOCTYPE svg PUBLIC "-//W3C//DTD SVG 1.1//EN" "http://www.w3.org/Graphics/SVG/1.1/DTD/svg11.dtd"><svg class="icon" width="48px" height="48.00px" viewBox="0 0 1024 1024" version="1.1" xmlns="http://www.w3.org/2000/svg"><path d="M145.6 0C100.8 0 64 36.8 64 81.6v860.8C64 987.2 100.8 1024 145.6 1024h732.8c44.8 0 81.6-36.8 81.6-81.6V324.8L657.6 0h-512z" fill="#6A6AE2" /><path d="M960 326.4v16H755.2s-100.8-20.8-99.2-108.8c0 0 4.8 92.8 97.6 92.8H960z" fill="#4F4FDA" /><path d="M657.6 0v233.6c0 25.6 17.6 92.8 97.6 92.8H960L657.6 0z" fill="#FFFFFF" opacity=".5" /><path d="M304 784h-54.4v65.6c0 8-4.8 12.8-11.2 12.8-6.4 0-12.8-4.8-12.8-12.8V684.8c0-8 8-16 17.6-16H304c38.4 0 59.2 25.6 59.2 57.6S340.8 784 304 784z m-3.2-94.4h-51.2v73.6h51.2c22.4 0 38.4-16 38.4-36.8s-16-36.8-38.4-36.8z m192 174.4c-54.4 0-97.6-40-97.6-99.2s43.2-99.2 97.6-99.2c28.8 0 51.2 11.2 67.2 25.6 1.6 1.6 3.2 4.8 3.2 8 0 6.4-4.8 11.2-11.2 11.2-3.2 0-6.4-1.6-8-3.2-12.8-12.8-32-20.8-51.2-20.8-41.6 0-73.6 32-73.6 78.4 0 44.8 32 78.4 73.6 78.4 24 0 43.2-11.2 52.8-20.8v-40h-57.6c-6.4 0-11.2-4.8-11.2-11.2 0-4.8 4.8-9.6 11.2-9.6h64c9.6 0 17.6 8 17.6 17.6v38.4c0 28.8-41.6 46.4-76.8 46.4z m184 0c-28.8 0-51.2-9.6-67.2-24-3.2-1.6-3.2-4.8-3.2-8 0-6.4 3.2-12.8 11.2-12.8 1.6 0 4.8 0 6.4 1.6 12.8 12.8 32 22.4 54.4 22.4 33.6 0 44.8-19.2 44.8-33.6 0-49.6-113.6-22.4-113.6-91.2 0-32 28.8-52.8 65.6-52.8 25.6 0 46.4 8 62.4 20.8 1.6 1.6 3.2 4.8 3.2 8 0 6.4-4.8 11.2-11.2 11.2-1.6 0-4.8 0-6.4-1.6-14.4-12.8-32-17.6-49.6-17.6-22.4 0-40 12.8-40 30.4 0 43.2 113.6 19.2 113.6 91.2 0 27.2-17.6 56-70.4 56z" fill="#FFFFFF" /></svg>