<?xml version="1.0" standalone="no"?><!DOCTYPE svg PUBLIC "-//W3C//DTD SVG 1.1//EN" "http://www.w3.org/Graphics/SVG/1.1/DTD/svg11.dtd"><svg class="icon" width="48px" height="48.00px" viewBox="0 0 1024 1024" version="1.1" xmlns="http://www.w3.org/2000/svg"><path d="M145.6 0C100.8 0 64 36.8 64 81.6v860.8C64 987.2 100.8 1024 145.6 1024h731.2c44.8 0 81.6-36.8 81.6-81.6V324.8L656 0H145.6z" fill="#DDD965" /><path d="M960 326.4v16H755.2s-100.8-20.8-99.2-108.8c0 0 4.8 92.8 97.6 92.8H960z" fill="#C1BC45" /><path d="M657.6 0v233.6c0 25.6 17.6 92.8 97.6 92.8H960L657.6 0z" fill="#FFFFFF" opacity=".5" /><path d="M534.4 556.8H252.8c-14.4 0-25.6 11.2-25.6 25.6v256c0 12.8 11.2 24 25.6 24h209.6l97.6-96V582.4c0-14.4-11.2-25.6-25.6-25.6z" fill="#FFFFFF" /><path d="M283.2 697.6h219.2v25.6H283.2z m0-57.6h219.2v25.6H283.2z m0 113.6h142.4v27.2h-142.4z" fill="#DBD75D" /></svg>