<?xml version="1.0" standalone="no"?><!DOCTYPE svg PUBLIC "-//W3C//DTD SVG 1.1//EN" "http://www.w3.org/Graphics/SVG/1.1/DTD/svg11.dtd"><svg class="icon" width="48px" height="48.00px" viewBox="0 0 1024 1024" version="1.1" xmlns="http://www.w3.org/2000/svg"><path d="M145.6 0C100.8 0 64 36.8 64 81.6v860.8C64 987.2 100.8 1024 145.6 1024h732.8c44.8 0 81.6-36.8 81.6-81.6V324.8L657.6 0h-512z" fill="#496AB3" /><path d="M960 326.4v16H755.2s-100.8-20.8-99.2-108.8c0 0 4.8 92.8 97.6 92.8H960z" fill="#374FA0" /><path d="M657.6 0v233.6c0 25.6 17.6 92.8 97.6 92.8H960L657.6 0z" fill="#FFFFFF" opacity=".5" /><path d="M398.4 683.2L332.8 848c-3.2 8-11.2 12.8-19.2 12.8h-1.6c-8 0-16-4.8-19.2-12.8l-65.6-164.8c-1.6-1.6-1.6-3.2-1.6-4.8 0-6.4 6.4-12.8 12.8-12.8 4.8 0 9.6 3.2 12.8 8l62.4 160 60.8-160c1.6-4.8 6.4-8 12.8-8s12.8 6.4 12.8 12.8c0 1.6-1.6 3.2-1.6 4.8z m51.2 177.6c-8 0-12.8-4.8-12.8-11.2V676.8c0-6.4 4.8-11.2 12.8-11.2 6.4 0 11.2 4.8 11.2 11.2v172.8c0 6.4-4.8 11.2-11.2 11.2z m126.4 1.6c-28.8 0-51.2-9.6-67.2-24-3.2-1.6-4.8-4.8-4.8-8 0-6.4 4.8-12.8 11.2-12.8 3.2 0 4.8 1.6 6.4 3.2 14.4 11.2 32 20.8 54.4 20.8 35.2 0 44.8-17.6 44.8-33.6 0-49.6-113.6-22.4-113.6-89.6 0-32 28.8-54.4 67.2-54.4 24 0 44.8 8 60.8 20.8 3.2 3.2 4.8 6.4 4.8 9.6 0 4.8-4.8 11.2-11.2 11.2-3.2 0-4.8-1.6-8-3.2-14.4-11.2-32-16-49.6-16-22.4 0-38.4 11.2-38.4 30.4 0 43.2 113.6 17.6 113.6 89.6 0 28.8-19.2 56-70.4 56z" fill="#FFFFFF" /></svg>